<svg xmlns="http://www.w3.org/2000/svg" xmlns:xlink="http://www.w3.org/1999/xlink" width="500" zoomAndPan="magnify" viewBox="0 0 375 374.999991" height="500" preserveAspectRatio="xMidYMid meet" version="1.0"><defs><clipPath id="9b6d40455f"><path d="M 28.339844 186 L 76 186 L 76 198 L 28.339844 198 Z M 28.339844 186 " clip-rule="nonzero"/></clipPath><clipPath id="02864a259a"><path d="M 87.648438 86 L 286 86 L 286 303 L 87.648438 303 Z M 87.648438 86 " clip-rule="nonzero"/></clipPath></defs><rect x="-37.5" width="450" fill="#ffffff" y="-37.499999" height="449.999989" fill-opacity="1"/><rect x="-37.5" width="450" fill="#956de5" y="-37.499999" height="449.999989" fill-opacity="1"/><path fill="#3c3c3b" d="M 342.886719 199.988281 L 342.507812 199.988281 L 302.457031 194.859375 C 302.066406 194.8125 301.703125 194.6875 301.359375 194.492188 C 301.019531 194.296875 300.730469 194.039062 300.488281 193.730469 C 300.25 193.417969 300.078125 193.070312 299.972656 192.691406 C 299.871094 192.308594 299.847656 191.921875 299.898438 191.53125 C 299.949219 191.140625 300.070312 190.777344 300.265625 190.433594 C 300.464844 190.09375 300.71875 189.800781 301.03125 189.5625 C 301.339844 189.320312 301.6875 189.148438 302.066406 189.046875 C 302.445312 188.945312 302.832031 188.917969 303.222656 188.96875 L 343.242188 194.214844 C 343.632812 194.238281 344 194.335938 344.351562 194.511719 C 344.703125 194.683594 345.007812 194.917969 345.265625 195.210938 C 345.523438 195.503906 345.714844 195.835938 345.839844 196.207031 C 345.964844 196.578125 346.015625 196.960938 345.992188 197.351562 C 345.964844 197.742188 345.867188 198.113281 345.695312 198.460938 C 345.519531 198.8125 345.289062 199.117188 344.996094 199.375 C 344.699219 199.636719 344.367188 199.828125 344 199.953125 C 343.628906 200.078125 343.25 200.128906 342.859375 200.105469 Z M 342.886719 199.988281 " fill-opacity="1" fill-rule="nonzero"/><g clip-path="url(#9b6d40455f)"><path fill="#3c3c3b" d="M 31.9375 197.070312 C 31.546875 197.09375 31.167969 197.039062 30.800781 196.90625 C 30.433594 196.777344 30.101562 196.582031 29.8125 196.320312 C 29.519531 196.0625 29.292969 195.753906 29.121094 195.402344 C 28.953125 195.050781 28.859375 194.675781 28.835938 194.285156 C 28.816406 193.894531 28.867188 193.515625 29 193.148438 C 29.128906 192.777344 29.324219 192.449219 29.582031 192.15625 C 29.84375 191.867188 30.148438 191.636719 30.503906 191.464844 C 30.855469 191.296875 31.226562 191.199219 31.613281 191.179688 L 71.75 186.703125 C 72.140625 186.660156 72.523438 186.691406 72.902344 186.800781 C 73.277344 186.914062 73.621094 187.089844 73.925781 187.335938 C 74.230469 187.582031 74.480469 187.878906 74.667969 188.222656 C 74.855469 188.566406 74.972656 188.933594 75.015625 189.324219 C 75.058594 189.714844 75.023438 190.097656 74.914062 190.476562 C 74.804688 190.851562 74.628906 191.195312 74.382812 191.5 C 74.136719 191.808594 73.84375 192.054688 73.5 192.246094 C 73.15625 192.433594 72.789062 192.550781 72.398438 192.59375 L 32.261719 197.070312 Z M 31.9375 197.070312 " fill-opacity="1" fill-rule="nonzero"/></g><path fill="#3c3c3b" d="M 79.398438 137.335938 C 79.023438 137.324219 78.660156 137.257812 78.308594 137.132812 L 40.761719 122.433594 C 40.378906 122.304688 40.042969 122.101562 39.746094 121.832031 C 39.445312 121.566406 39.214844 121.246094 39.046875 120.882812 C 38.878906 120.519531 38.789062 120.136719 38.777344 119.734375 C 38.761719 119.332031 38.832031 118.945312 38.976562 118.570312 C 39.125 118.199219 39.335938 117.867188 39.617188 117.582031 C 39.898438 117.292969 40.226562 117.074219 40.597656 116.921875 C 40.96875 116.769531 41.355469 116.695312 41.753906 116.703125 C 42.15625 116.707031 42.539062 116.792969 42.90625 116.953125 L 80.515625 131.683594 C 80.839844 131.800781 81.140625 131.972656 81.40625 132.195312 C 81.671875 132.421875 81.890625 132.683594 82.066406 132.988281 C 82.238281 133.289062 82.351562 133.613281 82.410156 133.957031 C 82.46875 134.300781 82.46875 134.644531 82.402344 134.988281 C 82.339844 135.332031 82.21875 135.652344 82.042969 135.953125 C 81.863281 136.253906 81.640625 136.511719 81.371094 136.734375 C 81.101562 136.953125 80.800781 137.121094 80.472656 137.234375 C 80.144531 137.347656 79.804688 137.402344 79.457031 137.394531 Z M 79.398438 137.335938 " fill-opacity="1" fill-rule="nonzero"/><path fill="#3c3c3b" d="M 111.328125 91.769531 C 110.425781 91.769531 109.683594 91.425781 109.09375 90.742188 L 82.632812 60.226562 C 82.378906 59.925781 82.195312 59.585938 82.078125 59.214844 C 81.960938 58.839844 81.917969 58.457031 81.953125 58.066406 C 81.988281 57.675781 82.097656 57.304688 82.277344 56.957031 C 82.457031 56.609375 82.699219 56.308594 83 56.058594 C 83.300781 55.804688 83.636719 55.621094 84.011719 55.503906 C 84.382812 55.386719 84.765625 55.34375 85.15625 55.378906 C 85.546875 55.414062 85.914062 55.519531 86.261719 55.703125 C 86.609375 55.882812 86.910156 56.125 87.160156 56.425781 L 113.625 86.941406 C 113.878906 87.234375 114.066406 87.570312 114.191406 87.9375 C 114.3125 88.308594 114.363281 88.6875 114.335938 89.078125 C 114.308594 89.46875 114.207031 89.835938 114.03125 90.1875 C 113.859375 90.535156 113.625 90.835938 113.328125 91.09375 C 112.75 91.578125 112.082031 91.800781 111.328125 91.769531 Z M 111.328125 91.769531 " fill-opacity="1" fill-rule="nonzero"/><path fill="#3c3c3b" d="M 160.90625 66.324219 C 160.566406 66.332031 160.238281 66.285156 159.917969 66.179688 C 159.59375 66.074219 159.300781 65.917969 159.03125 65.710938 C 158.765625 65.503906 158.539062 65.261719 158.355469 64.976562 C 158.171875 64.691406 158.042969 64.382812 157.964844 64.054688 L 148.761719 24.703125 C 148.671875 24.3125 148.660156 23.921875 148.726562 23.523438 C 148.792969 23.128906 148.933594 22.761719 149.144531 22.421875 C 149.355469 22.082031 149.625 21.796875 149.953125 21.5625 C 150.277344 21.332031 150.636719 21.171875 151.027344 21.082031 C 151.414062 20.992188 151.808594 20.980469 152.203125 21.046875 C 152.597656 21.113281 152.964844 21.253906 153.304688 21.464844 C 153.640625 21.675781 153.929688 21.945312 154.160156 22.273438 C 154.390625 22.601562 154.554688 22.957031 154.640625 23.347656 L 163.933594 62.699219 C 164.027344 63.082031 164.042969 63.46875 163.980469 63.859375 C 163.917969 64.246094 163.78125 64.609375 163.574219 64.945312 C 163.367188 65.277344 163.105469 65.558594 162.785156 65.789062 C 162.464844 66.019531 162.113281 66.175781 161.730469 66.265625 C 161.457031 66.328125 161.183594 66.347656 160.90625 66.324219 Z M 160.90625 66.324219 " fill-opacity="1" fill-rule="nonzero"/><path fill="#3c3c3b" d="M 216.566406 66.910156 C 216.324219 66.941406 216.078125 66.941406 215.832031 66.910156 C 215.457031 66.816406 215.113281 66.648438 214.804688 66.417969 C 214.496094 66.183594 214.238281 65.898438 214.042969 65.566406 C 213.84375 65.234375 213.714844 64.875 213.660156 64.488281 C 213.601562 64.105469 213.621094 63.726562 213.714844 63.347656 L 223.683594 24.027344 C 223.78125 23.648438 223.949219 23.300781 224.183594 22.988281 C 224.417969 22.675781 224.703125 22.421875 225.039062 22.222656 C 225.375 22.023438 225.738281 21.894531 226.125 21.839844 C 226.511719 21.785156 226.894531 21.808594 227.269531 21.90625 C 227.648438 22.003906 227.996094 22.167969 228.304688 22.40625 C 228.617188 22.640625 228.875 22.925781 229.074219 23.261719 C 229.269531 23.601562 229.398438 23.960938 229.453125 24.351562 C 229.507812 24.738281 229.484375 25.121094 229.386719 25.5 L 219.421875 64.671875 C 219.339844 64.992188 219.210938 65.289062 219.035156 65.566406 C 218.855469 65.84375 218.636719 66.082031 218.378906 66.285156 C 218.121094 66.488281 217.835938 66.644531 217.527344 66.75 C 217.214844 66.859375 216.894531 66.910156 216.566406 66.910156 Z M 216.566406 66.910156 " fill-opacity="1" fill-rule="nonzero"/><path fill="#3c3c3b" d="M 265.527344 93.242188 C 264.941406 93.25 264.40625 93.09375 263.914062 92.777344 C 263.425781 92.460938 263.058594 92.039062 262.820312 91.503906 C 262.582031 90.972656 262.507812 90.417969 262.597656 89.839844 C 262.6875 89.265625 262.929688 88.757812 263.320312 88.324219 L 290.402344 58.3125 C 290.667969 58.019531 290.976562 57.789062 291.332031 57.621094 C 291.691406 57.453125 292.066406 57.359375 292.457031 57.34375 C 292.851562 57.324219 293.234375 57.382812 293.605469 57.515625 C 293.972656 57.648438 294.304688 57.851562 294.59375 58.117188 C 294.886719 58.382812 295.117188 58.695312 295.28125 59.050781 C 295.449219 59.40625 295.542969 59.785156 295.558594 60.175781 C 295.578125 60.570312 295.519531 60.953125 295.382812 61.324219 C 295.25 61.695312 295.050781 62.027344 294.78125 62.316406 L 267.703125 92.273438 C 267.121094 92.917969 266.394531 93.242188 265.527344 93.242188 Z M 265.527344 93.242188 " fill-opacity="1" fill-rule="nonzero"/><path fill="#3c3c3b" d="M 296.578125 139.398438 C 296.230469 139.398438 295.894531 139.339844 295.570312 139.21875 C 295.246094 139.101562 294.953125 138.929688 294.6875 138.707031 C 294.421875 138.484375 294.203125 138.222656 294.03125 137.921875 C 293.859375 137.625 293.742188 137.304688 293.683594 136.960938 C 293.625 136.621094 293.625 136.28125 293.683594 135.9375 C 293.746094 135.597656 293.863281 135.277344 294.035156 134.976562 C 294.207031 134.679688 294.425781 134.417969 294.691406 134.195312 C 294.957031 133.972656 295.253906 133.804688 295.578125 133.683594 L 333.449219 119.695312 C 333.804688 119.59375 334.167969 119.5625 334.535156 119.601562 C 334.902344 119.636719 335.25 119.742188 335.578125 119.910156 C 335.90625 120.078125 336.191406 120.300781 336.4375 120.578125 C 336.683594 120.855469 336.867188 121.164062 336.996094 121.511719 C 337.125 121.859375 337.183594 122.21875 337.175781 122.585938 C 337.171875 122.957031 337.097656 123.3125 336.957031 123.652344 C 336.816406 123.996094 336.617188 124.300781 336.363281 124.566406 C 336.109375 124.835938 335.8125 125.046875 335.480469 125.203125 L 297.722656 139.222656 C 297.351562 139.359375 296.972656 139.417969 296.578125 139.398438 Z M 296.578125 139.398438 " fill-opacity="1" fill-rule="nonzero"/><g clip-path="url(#02864a259a)"><path fill="#eaebff" d="M 228.160156 289.691406 C 228.167969 288.125 228.269531 286.566406 228.460938 285.015625 C 228.65625 283.460938 228.941406 281.925781 229.320312 280.40625 C 229.699219 278.886719 230.164062 277.398438 230.722656 275.933594 C 231.277344 274.472656 231.921875 273.050781 232.648438 271.664062 C 233.375 270.277344 234.183594 268.941406 235.070312 267.652344 C 235.957031 266.363281 236.917969 265.132812 237.953125 263.957031 C 238.988281 262.785156 240.089844 261.679688 241.261719 260.636719 C 242.429688 259.59375 243.652344 258.628906 244.9375 257.734375 C 246.609375 256.570312 248.242188 255.359375 249.832031 254.089844 C 251.425781 252.824219 252.972656 251.503906 254.480469 250.136719 C 255.984375 248.765625 257.445312 247.351562 258.855469 245.886719 C 260.269531 244.421875 261.632812 242.914062 262.949219 241.359375 C 264.261719 239.804688 265.523438 238.210938 266.734375 236.574219 C 267.945312 234.9375 269.101562 233.265625 270.203125 231.554688 C 271.300781 229.84375 272.347656 228.097656 273.332031 226.316406 C 274.320312 224.539062 275.246094 222.726562 276.113281 220.886719 C 276.984375 219.046875 277.789062 217.179688 278.535156 215.285156 C 279.28125 213.394531 279.964844 211.476562 280.585938 209.539062 C 281.207031 207.601562 281.765625 205.644531 282.257812 203.671875 C 282.75 201.699219 283.179688 199.710938 283.542969 197.707031 C 283.90625 195.703125 284.203125 193.691406 284.433594 191.671875 C 284.667969 189.648438 284.832031 187.621094 284.929688 185.589844 C 285.03125 183.558594 285.0625 181.523438 285.027344 179.488281 C 284.996094 177.453125 284.894531 175.421875 284.726562 173.394531 C 280.722656 127.039062 241.535156 89.929688 193.402344 86.738281 C 135.839844 82.882812 87.648438 126.738281 87.648438 181.378906 C 87.667969 185.136719 87.914062 188.878906 88.386719 192.605469 C 88.859375 196.335938 89.550781 200.023438 90.464844 203.667969 C 91.382812 207.3125 92.511719 210.886719 93.859375 214.398438 C 95.203125 217.90625 96.753906 221.320312 98.511719 224.644531 C 100.269531 227.964844 102.21875 231.167969 104.363281 234.257812 C 106.503906 237.34375 108.824219 240.292969 111.324219 243.101562 C 113.820312 245.90625 116.476562 248.554688 119.292969 251.042969 C 122.109375 253.53125 125.066406 255.839844 128.160156 257.972656 C 129.425781 258.867188 130.632812 259.832031 131.78125 260.867188 C 132.933594 261.90625 134.015625 263.007812 135.03125 264.175781 C 136.050781 265.34375 136.996094 266.566406 137.863281 267.847656 C 138.734375 269.125 139.527344 270.453125 140.238281 271.828125 C 140.949219 273.203125 141.578125 274.617188 142.121094 276.066406 C 142.664062 277.515625 143.117188 278.996094 143.480469 280.5 C 143.847656 282.003906 144.121094 283.523438 144.304688 285.0625 C 144.488281 286.597656 144.578125 288.140625 144.578125 289.691406 L 144.578125 302.761719 L 228.160156 302.761719 Z M 228.160156 289.691406 " fill-opacity="1" fill-rule="nonzero"/></g><path fill="#eaebff" d="M 265.359375 207.523438 C 264.757812 207.523438 264.167969 207.453125 263.582031 207.3125 C 263.152344 207.195312 262.734375 207.035156 262.335938 206.835938 C 261.9375 206.640625 261.558594 206.402344 261.207031 206.128906 C 260.851562 205.855469 260.527344 205.550781 260.234375 205.214844 C 259.941406 204.878906 259.683594 204.515625 259.460938 204.128906 C 259.238281 203.742188 259.058594 203.335938 258.914062 202.914062 C 258.773438 202.492188 258.671875 202.058594 258.613281 201.617188 C 258.558594 201.171875 258.542969 200.726562 258.574219 200.28125 C 258.605469 199.835938 258.675781 199.398438 258.792969 198.96875 C 259.15625 197.523438 259.515625 195.957031 259.789062 194.628906 C 259.875 194.191406 260 193.765625 260.171875 193.351562 C 260.339844 192.9375 260.550781 192.542969 260.796875 192.171875 C 261.046875 191.796875 261.328125 191.453125 261.640625 191.136719 C 261.957031 190.820312 262.300781 190.535156 262.671875 190.285156 C 263.042969 190.035156 263.4375 189.824219 263.847656 189.652344 C 264.261719 189.480469 264.6875 189.351562 265.125 189.261719 C 265.5625 189.171875 266.007812 189.128906 266.453125 189.125 C 266.902344 189.125 267.34375 189.167969 267.785156 189.253906 C 268.222656 189.339844 268.648438 189.46875 269.0625 189.636719 C 269.476562 189.808594 269.871094 190.015625 270.242188 190.265625 C 270.617188 190.511719 270.960938 190.792969 271.277344 191.109375 C 271.597656 191.425781 271.878906 191.765625 272.128906 192.140625 C 272.378906 192.511719 272.589844 192.902344 272.761719 193.316406 C 272.933594 193.726562 273.066406 194.152344 273.152344 194.59375 C 273.242188 195.03125 273.285156 195.472656 273.289062 195.921875 C 273.289062 196.367188 273.246094 196.8125 273.160156 197.25 C 272.800781 199.027344 272.40625 200.746094 271.925781 202.492188 C 271.734375 203.214844 271.429688 203.886719 271.011719 204.507812 C 270.597656 205.132812 270.09375 205.667969 269.5 206.125 C 268.90625 206.578125 268.253906 206.925781 267.546875 207.167969 C 266.835938 207.40625 266.109375 207.523438 265.359375 207.523438 Z M 265.359375 207.523438 " fill-opacity="1" fill-rule="nonzero"/><path fill="#eaebff" d="M 207.167969 102.007812 C 211.417969 102.917969 215.578125 104.132812 219.652344 105.65625 C 223.722656 107.183594 227.65625 109 231.460938 111.105469 C 235.261719 113.214844 238.886719 115.589844 242.339844 118.234375 C 245.789062 120.878906 249.023438 123.765625 252.046875 126.890625 C 255.136719 130.082031 257.945312 133.503906 260.472656 137.15625 C 263.003906 140.808594 265.21875 144.644531 267.117188 148.660156 C 269.019531 152.675781 270.578125 156.820312 271.800781 161.089844 C 273.019531 165.363281 273.886719 169.703125 274.394531 174.117188 C 274.445312 174.5625 274.449219 175.007812 274.410156 175.453125 C 274.371094 175.902344 274.289062 176.339844 274.164062 176.769531 C 274.035156 177.199219 273.871094 177.609375 273.664062 178.007812 C 273.457031 178.40625 273.214844 178.777344 272.933594 179.125 C 272.652344 179.476562 272.339844 179.792969 271.996094 180.082031 C 271.65625 180.367188 271.285156 180.621094 270.894531 180.835938 C 270.5 181.050781 270.089844 181.226562 269.664062 181.359375 C 269.238281 181.492188 268.800781 181.585938 268.355469 181.632812 C 267.910156 181.683594 267.464844 181.6875 267.019531 181.648438 C 266.574219 181.609375 266.136719 181.523438 265.707031 181.398438 C 265.277344 181.273438 264.863281 181.109375 264.46875 180.902344 C 264.070312 180.695312 263.699219 180.449219 263.347656 180.171875 C 263 179.890625 262.679688 179.578125 262.394531 179.234375 C 262.105469 178.890625 261.855469 178.523438 261.640625 178.132812 C 261.425781 177.738281 261.25 177.328125 261.117188 176.902344 C 260.980469 176.476562 260.890625 176.039062 260.839844 175.59375 C 260.828125 175.464844 260.828125 175.332031 260.839844 175.203125 C 260.605469 171.429688 260.066406 167.703125 259.21875 164.019531 C 258.371094 160.335938 257.230469 156.746094 255.792969 153.246094 C 254.355469 149.75 252.644531 146.394531 250.65625 143.179688 C 248.667969 139.964844 246.429688 136.933594 243.945312 134.089844 C 241.410156 131.152344 238.675781 128.421875 235.738281 125.894531 C 232.800781 123.363281 229.691406 121.066406 226.414062 119 C 223.132812 116.933594 219.71875 115.117188 216.171875 113.558594 C 212.625 112 208.980469 110.710938 205.238281 109.691406 C 204.761719 109.535156 204.328125 109.296875 203.9375 108.980469 C 203.546875 108.660156 203.230469 108.28125 202.984375 107.84375 C 202.738281 107.40625 202.578125 106.9375 202.507812 106.4375 C 202.4375 105.941406 202.460938 105.449219 202.578125 104.957031 C 202.691406 104.46875 202.894531 104.015625 203.179688 103.601562 C 203.464844 103.191406 203.816406 102.84375 204.234375 102.558594 C 204.652344 102.277344 205.105469 102.082031 205.59375 101.972656 C 206.085938 101.863281 206.578125 101.84375 207.078125 101.917969 Z M 207.167969 102.007812 " fill-opacity="1" fill-rule="nonzero"/><path fill="#3c3c3b" d="M 144.578125 302.761719 L 144.578125 324.179688 C 144.597656 325.113281 144.707031 326.035156 144.90625 326.949219 C 145.109375 327.863281 145.398438 328.746094 145.773438 329.601562 C 146.148438 330.457031 146.601562 331.269531 147.136719 332.035156 C 147.671875 332.800781 148.277344 333.507812 148.949219 334.15625 C 149.625 334.800781 150.355469 335.378906 151.140625 335.882812 C 151.929688 336.386719 152.757812 336.808594 153.628906 337.148438 C 154.5 337.488281 155.394531 337.742188 156.3125 337.90625 C 157.234375 338.070312 158.160156 338.140625 159.09375 338.125 L 213.644531 338.125 C 214.578125 338.140625 215.503906 338.070312 216.425781 337.90625 C 217.34375 337.742188 218.238281 337.488281 219.109375 337.148438 C 219.980469 336.808594 220.808594 336.386719 221.59375 335.882812 C 222.382812 335.378906 223.113281 334.800781 223.785156 334.15625 C 224.460938 333.507812 225.066406 332.800781 225.601562 332.035156 C 226.132812 331.269531 226.589844 330.457031 226.964844 329.601562 C 227.339844 328.746094 227.628906 327.863281 227.828125 326.949219 C 228.03125 326.035156 228.140625 325.113281 228.160156 324.179688 L 228.160156 302.761719 Z M 144.578125 302.761719 " fill-opacity="1" fill-rule="nonzero"/><path fill="#3c3c3b" d="M 156.925781 328.125 C 156.941406 328.957031 157 329.785156 157.097656 330.613281 C 157.195312 331.441406 157.335938 332.261719 157.511719 333.074219 C 157.691406 333.886719 157.910156 334.691406 158.167969 335.484375 C 158.425781 336.273438 158.722656 337.050781 159.054688 337.816406 C 159.390625 338.578125 159.761719 339.324219 160.167969 340.050781 C 160.574219 340.773438 161.015625 341.480469 161.492188 342.164062 C 161.96875 342.847656 162.476562 343.503906 163.019531 344.136719 C 163.5625 344.769531 164.132812 345.375 164.730469 345.953125 C 165.332031 346.527344 165.960938 347.074219 166.613281 347.589844 C 167.269531 348.105469 167.945312 348.585938 168.648438 349.035156 C 169.351562 349.484375 170.070312 349.898438 170.816406 350.273438 C 171.558594 350.652344 172.316406 350.992188 173.089844 351.296875 C 173.867188 351.597656 174.65625 351.863281 175.457031 352.089844 C 176.257812 352.316406 177.070312 352.5 177.890625 352.648438 C 178.710938 352.792969 179.535156 352.898438 180.367188 352.960938 C 181.195312 353.027344 182.027344 353.050781 182.859375 353.035156 L 189.878906 353.035156 C 190.710938 353.050781 191.539062 353.023438 192.371094 352.960938 C 193.199219 352.894531 194.023438 352.789062 194.84375 352.640625 C 195.664062 352.496094 196.472656 352.308594 197.273438 352.082031 C 198.074219 351.855469 198.863281 351.589844 199.636719 351.289062 C 200.410156 350.984375 201.167969 350.644531 201.910156 350.265625 C 202.652344 349.886719 203.375 349.472656 204.074219 349.023438 C 204.773438 348.578125 205.453125 348.09375 206.105469 347.578125 C 206.757812 347.0625 207.386719 346.519531 207.984375 345.941406 C 208.585938 345.363281 209.15625 344.757812 209.695312 344.125 C 210.238281 343.492188 210.746094 342.835938 211.21875 342.152344 C 211.695312 341.472656 212.136719 340.765625 212.542969 340.039062 C 212.949219 339.3125 213.320312 338.570312 213.65625 337.808594 C 213.988281 337.046875 214.285156 336.269531 214.539062 335.476562 C 214.796875 334.6875 215.015625 333.882812 215.195312 333.070312 C 215.375 332.257812 215.511719 331.4375 215.609375 330.613281 C 215.707031 329.785156 215.765625 328.957031 215.78125 328.125 Z M 156.925781 328.125 " fill-opacity="1" fill-rule="nonzero"/><path fill="#eaebff" d="M 246.640625 208.214844 C 246.277344 206.101562 245.6875 204.863281 245.765625 204.769531 C 260.0625 185.574219 239.804688 173.238281 239.804688 173.238281 C 240.410156 172.71875 240.972656 172.160156 241.492188 171.554688 C 242.015625 170.949219 242.484375 170.308594 242.902344 169.628906 C 243.324219 168.953125 243.6875 168.246094 244 167.511719 C 244.308594 166.777344 244.5625 166.023438 244.753906 165.25 C 244.949219 164.476562 245.082031 163.691406 245.152344 162.898438 C 245.226562 162.105469 245.234375 161.308594 245.183594 160.511719 C 245.132812 159.71875 245.019531 158.929688 244.84375 158.152344 C 244.671875 157.375 244.4375 156.613281 244.144531 155.871094 C 238.546875 141.398438 226.78125 145.988281 226.78125 145.988281 C 226.78125 145.988281 232.71875 130.757812 218.953125 121.234375 C 217.167969 119.984375 215.261719 118.949219 213.242188 118.132812 C 212.527344 117.859375 211.800781 117.632812 211.0625 117.449219 C 210.320312 117.265625 209.574219 117.125 208.816406 117.03125 C 208.058594 116.9375 207.296875 116.890625 206.535156 116.890625 C 205.773438 116.886719 205.011719 116.933594 204.253906 117.023438 C 203.496094 117.113281 202.746094 117.25 202.007812 117.433594 C 201.265625 117.613281 200.539062 117.839844 199.824219 118.109375 C 199.109375 118.378906 198.414062 118.6875 197.738281 119.042969 C 197.0625 119.394531 196.410156 119.789062 195.78125 120.222656 C 195.152344 120.65625 194.554688 121.125 193.980469 121.628906 C 193.410156 122.132812 192.871094 122.671875 192.363281 123.242188 C 191.855469 123.8125 191.386719 124.410156 190.953125 125.039062 C 190.519531 125.667969 190.125 126.316406 189.769531 126.992188 C 189.414062 127.667969 189.101562 128.363281 188.828125 129.074219 C 188.558594 129.789062 188.332031 130.515625 188.148438 131.253906 C 187.964844 131.996094 187.824219 132.746094 187.734375 133.503906 C 187.640625 134.261719 187.59375 135.019531 187.59375 135.785156 C 187.597656 135.015625 187.554688 134.25 187.464844 133.484375 C 187.375 132.722656 187.238281 131.96875 187.054688 131.222656 C 186.875 130.476562 186.648438 129.742188 186.375 129.023438 C 186.105469 128.304688 185.789062 127.605469 185.433594 126.925781 C 185.078125 126.242188 184.679688 125.585938 184.242188 124.953125 C 183.804688 124.324219 183.332031 123.71875 182.824219 123.144531 C 182.3125 122.570312 181.769531 122.027344 181.191406 121.519531 C 180.617188 121.011719 180.011719 120.539062 179.378906 120.105469 C 178.742188 119.671875 178.085938 119.277344 177.402344 118.921875 C 176.722656 118.570312 176.019531 118.257812 175.300781 117.988281 C 174.582031 117.71875 173.847656 117.496094 173.101562 117.316406 C 172.355469 117.136719 171.597656 117.003906 170.835938 116.914062 C 170.070312 116.828125 169.304688 116.789062 168.539062 116.792969 C 167.769531 116.800781 167.003906 116.851562 166.242188 116.953125 C 165.480469 117.050781 164.726562 117.195312 163.984375 117.386719 C 163.238281 117.578125 162.507812 117.8125 161.792969 118.09375 C 159.773438 118.917969 157.871094 119.953125 156.082031 121.199219 C 142.3125 130.71875 148.253906 145.949219 148.253906 145.949219 C 148.253906 145.949219 136.5625 141.324219 130.964844 155.871094 C 130.679688 156.617188 130.453125 157.375 130.285156 158.15625 C 130.117188 158.933594 130.007812 159.722656 129.960938 160.515625 C 129.914062 161.3125 129.929688 162.105469 130.003906 162.898438 C 130.078125 163.691406 130.214844 164.476562 130.414062 165.246094 C 130.609375 166.019531 130.863281 166.773438 131.175781 167.503906 C 131.488281 168.238281 131.855469 168.941406 132.277344 169.617188 C 132.699219 170.296875 133.171875 170.933594 133.691406 171.539062 C 134.210938 172.140625 134.777344 172.703125 135.382812 173.21875 C 135.382812 173.21875 115.125 185.574219 129.421875 204.769531 C 129.421875 204.769531 128.929688 206.101562 128.546875 208.214844 C 128.414062 208.84375 128.332031 209.476562 128.300781 210.121094 C 128.164062 213.085938 128.550781 215.984375 129.457031 218.808594 C 130.367188 221.636719 131.738281 224.21875 133.574219 226.550781 C 138.925781 234.074219 149.511719 233.195312 149.511719 233.195312 C 149.511719 233.195312 149.511719 245.058594 159.488281 251.304688 C 160.21875 251.746094 160.972656 252.140625 161.753906 252.484375 C 174.015625 257.742188 187.59375 248.144531 187.59375 234.796875 C 187.59375 248.125 201.167969 257.644531 213.433594 252.484375 C 214.214844 252.144531 214.96875 251.75 215.699219 251.304688 C 225.695312 245.058594 225.695312 233.195312 225.695312 233.195312 C 225.695312 233.195312 236.28125 234.074219 241.613281 226.550781 C 243.449219 224.21875 244.820312 221.636719 245.726562 218.808594 C 246.636719 215.984375 247.023438 213.085938 246.886719 210.121094 C 246.867188 209.476562 246.78125 208.84375 246.640625 208.214844 Z M 246.640625 208.214844 " fill-opacity="1" fill-rule="nonzero"/><path fill="#3c3c3b" d="M 168.839844 256.027344 C 166.097656 256.015625 163.472656 255.472656 160.953125 254.390625 C 160.09375 254.011719 159.261719 253.574219 158.460938 253.074219 C 156.957031 252.089844 155.578125 250.949219 154.328125 249.652344 C 153.078125 248.359375 151.988281 246.941406 151.054688 245.402344 C 150.121094 243.863281 149.367188 242.242188 148.796875 240.535156 C 148.222656 238.832031 147.847656 237.082031 147.664062 235.292969 C 144.027344 235.160156 136.449219 234.09375 131.957031 227.675781 C 126.566406 220.058594 124.96875 212.441406 127.253906 205.074219 C 123.101562 199.171875 121.539062 193.25 122.683594 187.480469 C 123.371094 184.570312 124.535156 181.859375 126.167969 179.355469 C 127.804688 176.851562 129.816406 174.695312 132.203125 172.894531 C 131.136719 171.699219 130.257812 170.378906 129.558594 168.9375 C 128.859375 167.5 128.371094 165.988281 128.089844 164.414062 C 127.808594 162.835938 127.746094 161.253906 127.90625 159.660156 C 128.066406 158.066406 128.4375 156.523438 129.023438 155.035156 C 129.390625 153.882812 129.867188 152.78125 130.457031 151.726562 C 131.046875 150.671875 131.734375 149.6875 132.519531 148.773438 C 133.308594 147.855469 134.175781 147.027344 135.128906 146.289062 C 136.082031 145.546875 137.101562 144.90625 138.183594 144.371094 C 140.527344 143.363281 142.972656 142.988281 145.511719 143.246094 C 145.265625 142.136719 145.101562 141.015625 145.019531 139.878906 C 144.941406 138.742188 144.945312 137.609375 145.035156 136.472656 C 145.128906 135.339844 145.300781 134.21875 145.5625 133.109375 C 145.820312 132.003906 146.164062 130.921875 146.585938 129.863281 C 147.007812 128.804688 147.507812 127.789062 148.082031 126.804688 C 148.65625 125.824219 149.304688 124.890625 150.019531 124.007812 C 150.734375 123.121094 151.515625 122.296875 152.355469 121.527344 C 153.195312 120.761719 154.085938 120.058594 155.035156 119.425781 C 156.917969 118.136719 158.914062 117.066406 161.03125 116.210938 C 162.589844 115.5625 164.207031 115.121094 165.878906 114.878906 C 167.550781 114.636719 169.226562 114.605469 170.90625 114.78125 C 172.585938 114.960938 174.21875 115.34375 175.800781 115.929688 C 177.386719 116.515625 178.871094 117.289062 180.261719 118.246094 C 181.703125 119.210938 183.007812 120.335938 184.171875 121.621094 C 185.335938 122.90625 186.324219 124.3125 187.140625 125.84375 C 187.960938 127.371094 188.578125 128.976562 189 130.660156 C 189.421875 132.339844 189.628906 134.050781 189.628906 135.785156 L 189.628906 234.796875 C 189.636719 236.554688 189.425781 238.285156 189 239.992188 C 188.574219 241.695312 187.945312 243.324219 187.113281 244.871094 C 186.28125 246.421875 185.273438 247.84375 184.089844 249.144531 C 182.902344 250.441406 181.578125 251.574219 180.109375 252.542969 C 178.445312 253.671875 176.65625 254.53125 174.734375 255.125 C 172.8125 255.71875 170.847656 256.019531 168.839844 256.027344 Z M 149.511719 231.199219 C 149.78125 231.203125 150.039062 231.257812 150.285156 231.363281 C 150.53125 231.46875 150.75 231.617188 150.941406 231.804688 C 151.132812 231.996094 151.277344 232.214844 151.382812 232.460938 C 151.488281 232.707031 151.542969 232.964844 151.546875 233.234375 C 151.546875 233.234375 151.699219 244.070312 160.574219 249.609375 C 161.183594 250 161.820312 250.34375 162.476562 250.640625 C 163.707031 251.167969 164.980469 251.539062 166.300781 251.746094 C 167.621094 251.953125 168.949219 251.996094 170.28125 251.867188 C 171.613281 251.742188 172.90625 251.453125 174.164062 251 C 175.421875 250.546875 176.605469 249.941406 177.710938 249.191406 C 178.902344 248.410156 179.980469 247.496094 180.945312 246.449219 C 181.90625 245.398438 182.726562 244.246094 183.402344 242.996094 C 184.082031 241.742188 184.59375 240.425781 184.941406 239.042969 C 185.289062 237.660156 185.460938 236.257812 185.460938 234.835938 L 185.460938 135.820312 C 185.453125 134.417969 185.277344 133.039062 184.933594 131.679688 C 184.585938 130.320312 184.082031 129.023438 183.417969 127.789062 C 182.753906 126.554688 181.949219 125.417969 181.007812 124.378906 C 180.066406 123.34375 179.011719 122.433594 177.84375 121.65625 C 176.726562 120.886719 175.535156 120.265625 174.261719 119.792969 C 172.988281 119.324219 171.679688 119.015625 170.332031 118.875 C 168.984375 118.730469 167.636719 118.757812 166.296875 118.949219 C 164.953125 119.144531 163.65625 119.5 162.402344 120.015625 C 160.601562 120.78125 158.90625 121.734375 157.316406 122.875 C 145.132812 131.386719 150.007812 144.695312 150.234375 145.246094 C 150.375 145.625 150.402344 146.015625 150.316406 146.410156 C 150.230469 146.808594 150.046875 147.148438 149.757812 147.4375 C 149.472656 147.71875 149.132812 147.902344 148.742188 147.984375 C 148.347656 148.070312 147.964844 148.039062 147.589844 147.894531 C 146.578125 147.511719 137.515625 144.484375 132.871094 156.558594 C 132.621094 157.203125 132.425781 157.863281 132.28125 158.535156 C 132.132812 159.210938 132.039062 159.894531 132 160.582031 C 131.960938 161.273438 131.972656 161.960938 132.035156 162.648438 C 132.101562 163.335938 132.21875 164.011719 132.386719 164.683594 C 132.558594 165.351562 132.777344 166.003906 133.046875 166.640625 C 133.316406 167.273438 133.632812 167.886719 133.996094 168.472656 C 134.363281 169.058594 134.769531 169.613281 135.21875 170.140625 C 135.667969 170.664062 136.152344 171.148438 136.675781 171.597656 C 137.222656 172.046875 137.476562 172.625 137.4375 173.332031 C 137.394531 174.035156 137.070312 174.566406 136.46875 174.929688 C 136.46875 174.929688 128.242188 180.074219 126.644531 188.261719 C 125.710938 193.117188 127.214844 198.21875 131.078125 203.492188 C 131.34375 203.875 131.484375 204.296875 131.511719 204.757812 C 131.535156 205.222656 131.433594 205.65625 131.214844 206.0625 C 129.175781 212.347656 130.527344 218.878906 135.230469 225.484375 C 139.933594 232.09375 149.246094 231.292969 149.339844 231.199219 Z M 149.511719 231.199219 " fill-opacity="1" fill-rule="nonzero"/><path fill="#3c3c3b" d="M 164.421875 155.167969 C 162.765625 155.128906 161.132812 154.925781 159.519531 154.5625 C 157.90625 154.199219 156.34375 153.683594 154.832031 153.011719 C 153.320312 152.339844 151.890625 151.527344 150.539062 150.574219 C 149.1875 149.617188 147.945312 148.542969 146.808594 147.339844 C 146.636719 147.136719 146.511719 146.910156 146.429688 146.65625 C 146.347656 146.40625 146.316406 146.144531 146.335938 145.882812 C 146.355469 145.617188 146.421875 145.363281 146.539062 145.128906 C 146.65625 144.890625 146.816406 144.683594 147.015625 144.503906 C 147.210938 144.328125 147.4375 144.195312 147.6875 144.109375 C 147.9375 144.019531 148.195312 143.980469 148.460938 143.996094 C 148.726562 144.007812 148.980469 144.070312 149.21875 144.179688 C 149.460938 144.289062 149.671875 144.445312 149.855469 144.636719 C 150.855469 145.683594 151.949219 146.617188 153.144531 147.4375 C 154.339844 148.253906 155.605469 148.941406 156.945312 149.496094 C 158.28125 150.046875 159.660156 150.457031 161.085938 150.726562 C 162.507812 150.992188 163.945312 151.105469 165.390625 151.074219 C 166.125 151.058594 166.847656 150.957031 167.554688 150.769531 C 168.265625 150.578125 168.941406 150.308594 169.585938 149.957031 C 170.230469 149.605469 170.824219 149.183594 171.367188 148.691406 C 171.910156 148.195312 172.386719 147.644531 172.796875 147.035156 C 172.941406 146.800781 173.125 146.597656 173.347656 146.4375 C 173.574219 146.273438 173.820312 146.160156 174.089844 146.101562 C 174.359375 146.039062 174.628906 146.03125 174.902344 146.078125 C 175.175781 146.128906 175.429688 146.230469 175.660156 146.378906 C 175.890625 146.53125 176.085938 146.722656 176.238281 146.953125 C 176.390625 147.183594 176.496094 147.433594 176.546875 147.707031 C 176.597656 147.976562 176.59375 148.25 176.535156 148.519531 C 176.476562 148.789062 176.367188 149.039062 176.207031 149.265625 C 175.628906 150.140625 174.957031 150.933594 174.1875 151.648438 C 173.421875 152.363281 172.582031 152.980469 171.667969 153.496094 C 170.753906 154.007812 169.792969 154.410156 168.78125 154.695312 C 167.773438 154.980469 166.746094 155.144531 165.695312 155.1875 C 165.277344 155.167969 164.839844 155.167969 164.421875 155.167969 Z M 164.421875 155.167969 " fill-opacity="1" fill-rule="nonzero"/><path fill="#3c3c3b" d="M 149.511719 235.273438 C 149.253906 235.269531 149.003906 235.222656 148.765625 235.125 C 148.523438 235.03125 148.308594 234.894531 148.121094 234.71875 C 147.933594 234.542969 147.78125 234.335938 147.671875 234.105469 C 147.558594 233.871094 147.492188 233.625 147.472656 233.367188 C 147.449219 233.097656 147.480469 232.828125 147.566406 232.570312 C 147.648438 232.308594 147.78125 232.078125 147.960938 231.871094 C 148.140625 231.664062 148.355469 231.5 148.601562 231.378906 C 148.84375 231.261719 149.105469 231.191406 149.378906 231.179688 C 149.929688 231.179688 162.15625 229.675781 166.761719 211.507812 C 166.839844 211.261719 166.960938 211.035156 167.128906 210.835938 C 167.292969 210.632812 167.488281 210.46875 167.714844 210.339844 C 167.945312 210.214844 168.1875 210.136719 168.445312 210.101562 C 168.703125 210.070312 168.957031 210.085938 169.210938 210.148438 C 169.464844 210.214844 169.695312 210.324219 169.90625 210.476562 C 170.117188 210.628906 170.289062 210.816406 170.429688 211.035156 C 170.566406 211.257812 170.660156 211.496094 170.707031 211.75 C 170.757812 212.007812 170.753906 212.261719 170.703125 212.519531 C 165.351562 233.617188 150.367188 235.175781 149.757812 235.214844 Z M 149.511719 235.273438 " fill-opacity="1" fill-rule="nonzero"/><path fill="#3c3c3b" d="M 128.300781 212.824219 C 128.042969 212.824219 127.792969 212.777344 127.550781 212.679688 C 127.3125 212.585938 127.097656 212.449219 126.910156 212.273438 C 126.722656 212.097656 126.574219 211.890625 126.464844 211.65625 C 126.359375 211.421875 126.296875 211.175781 126.28125 210.917969 C 126.253906 209.648438 126.390625 208.394531 126.6875 207.15625 C 126.988281 205.917969 127.4375 204.742188 128.042969 203.621094 C 128.648438 202.503906 129.382812 201.476562 130.253906 200.550781 C 131.121094 199.621094 132.097656 198.820312 133.175781 198.144531 C 133.398438 197.992188 133.640625 197.886719 133.90625 197.832031 C 134.171875 197.777344 134.4375 197.773438 134.703125 197.824219 C 134.96875 197.875 135.214844 197.972656 135.441406 198.121094 C 135.667969 198.269531 135.855469 198.453125 136.007812 198.675781 C 136.160156 198.902344 136.265625 199.144531 136.320312 199.410156 C 136.375 199.675781 136.378906 199.9375 136.332031 200.203125 C 136.28125 200.472656 136.183594 200.71875 136.035156 200.945312 C 135.886719 201.171875 135.699219 201.359375 135.476562 201.511719 C 134.699219 201.988281 133.996094 202.554688 133.359375 203.207031 C 132.726562 203.863281 132.183594 204.585938 131.734375 205.378906 C 131.285156 206.171875 130.941406 207.007812 130.703125 207.890625 C 130.46875 208.769531 130.34375 209.664062 130.335938 210.578125 C 130.359375 210.851562 130.332031 211.117188 130.246094 211.378906 C 130.160156 211.640625 130.03125 211.875 129.851562 212.082031 C 129.671875 212.289062 129.457031 212.453125 129.210938 212.578125 C 128.964844 212.699219 128.707031 212.769531 128.433594 212.785156 Z M 128.300781 212.824219 " fill-opacity="1" fill-rule="nonzero"/><path fill="#3c3c3b" d="M 187.535156 209.757812 C 187.265625 209.761719 187.007812 209.710938 186.757812 209.609375 C 186.507812 209.507812 186.289062 209.363281 186.097656 209.171875 C 185.90625 208.984375 185.757812 208.765625 185.65625 208.515625 C 185.550781 208.269531 185.5 208.007812 185.5 207.738281 C 185.5 207.453125 185.347656 200.578125 179.273438 198.714844 C 178.96875 198.683594 178.6875 198.585938 178.425781 198.425781 C 178.164062 198.269531 177.949219 198.0625 177.78125 197.804688 C 177.613281 197.550781 177.507812 197.269531 177.464844 196.96875 C 177.425781 196.664062 177.449219 196.367188 177.539062 196.074219 C 177.632812 195.785156 177.78125 195.527344 177.992188 195.300781 C 178.199219 195.078125 178.445312 194.910156 178.730469 194.796875 C 179.011719 194.683594 179.308594 194.636719 179.613281 194.652344 C 179.917969 194.671875 180.203125 194.757812 180.472656 194.90625 C 187.652344 197.113281 189.554688 204.3125 189.574219 207.796875 C 189.574219 208.066406 189.523438 208.328125 189.417969 208.574219 C 189.316406 208.824219 189.167969 209.046875 188.976562 209.238281 C 188.785156 209.429688 188.566406 209.574219 188.316406 209.679688 C 188.066406 209.78125 187.804688 209.832031 187.535156 209.832031 Z M 187.535156 209.757812 " fill-opacity="1" fill-rule="nonzero"/><path fill="#3c3c3b" d="M 135.382812 175.253906 C 134.785156 175.261719 134.285156 175.046875 133.878906 174.609375 C 133.703125 174.410156 133.574219 174.1875 133.484375 173.941406 C 133.398438 173.695312 133.359375 173.4375 133.371094 173.175781 C 133.378906 172.914062 133.4375 172.664062 133.546875 172.421875 C 133.65625 172.183594 133.804688 171.972656 133.992188 171.789062 C 139.589844 167.226562 145.886719 164.054688 152.882812 162.269531 C 153.140625 162.195312 153.40625 162.175781 153.675781 162.207031 C 153.941406 162.238281 154.195312 162.320312 154.429688 162.453125 C 154.664062 162.585938 154.867188 162.757812 155.035156 162.96875 C 155.203125 163.183594 155.320312 163.417969 155.394531 163.679688 C 155.46875 163.9375 155.488281 164.203125 155.457031 164.472656 C 155.425781 164.738281 155.34375 164.992188 155.210938 165.226562 C 155.078125 165.460938 154.90625 165.664062 154.695312 165.832031 C 154.480469 166 154.246094 166.117188 153.984375 166.191406 C 147.671875 167.8125 141.960938 170.640625 136.847656 174.683594 C 136.445312 175.097656 135.957031 175.285156 135.382812 175.253906 Z M 135.382812 175.253906 " fill-opacity="1" fill-rule="nonzero"/><path fill="#3c3c3b" d="M 156.308594 176.855469 C 155.660156 176.851562 155.132812 176.597656 154.730469 176.09375 C 153.929688 175.164062 153.023438 174.351562 152.011719 173.660156 C 151 172.96875 149.917969 172.417969 148.761719 172.011719 C 147.605469 171.601562 146.414062 171.351562 145.195312 171.257812 C 143.972656 171.160156 142.757812 171.222656 141.550781 171.445312 C 141.289062 171.507812 141.023438 171.511719 140.757812 171.464844 C 140.492188 171.421875 140.242188 171.324219 140.015625 171.179688 C 139.785156 171.035156 139.59375 170.851562 139.4375 170.632812 C 139.28125 170.410156 139.175781 170.167969 139.117188 169.90625 C 139.054688 169.640625 139.050781 169.375 139.097656 169.109375 C 139.140625 168.84375 139.238281 168.59375 139.382812 168.367188 C 139.527344 168.136719 139.710938 167.945312 139.929688 167.789062 C 140.152344 167.632812 140.394531 167.527344 140.65625 167.46875 C 142.226562 167.167969 143.808594 167.074219 145.402344 167.195312 C 146.996094 167.316406 148.542969 167.644531 150.050781 168.179688 C 151.554688 168.710938 152.964844 169.433594 154.28125 170.34375 C 155.59375 171.253906 156.765625 172.320312 157.792969 173.542969 C 158.039062 173.847656 158.183594 174.195312 158.230469 174.582031 C 158.273438 174.96875 158.214844 175.339844 158.042969 175.695312 C 157.875 176.046875 157.625 176.328125 157.296875 176.539062 C 156.964844 176.746094 156.605469 176.851562 156.214844 176.855469 Z M 156.308594 176.855469 " fill-opacity="1" fill-rule="nonzero"/><path fill="#3c3c3b" d="M 164.289062 224.6875 C 163.894531 224.667969 163.539062 224.546875 163.214844 224.320312 C 162.894531 224.097656 162.65625 223.804688 162.503906 223.441406 C 162.351562 223.078125 162.308594 222.707031 162.371094 222.316406 C 162.433594 221.929688 162.597656 221.589844 162.859375 221.296875 C 163.722656 220.46875 164.671875 219.757812 165.710938 219.160156 C 166.746094 218.5625 167.839844 218.101562 168.988281 217.769531 C 170.136719 217.4375 171.308594 217.246094 172.503906 217.199219 C 173.699219 217.152344 174.882812 217.25 176.054688 217.488281 C 176.304688 217.566406 176.527344 217.6875 176.730469 217.851562 C 176.933594 218.019531 177.097656 218.214844 177.222656 218.441406 C 177.347656 218.667969 177.429688 218.914062 177.460938 219.171875 C 177.496094 219.429688 177.480469 219.683594 177.414062 219.9375 C 177.351562 220.1875 177.242188 220.421875 177.089844 220.632812 C 176.933594 220.839844 176.75 221.015625 176.527344 221.15625 C 176.308594 221.292969 176.070312 221.386719 175.8125 221.433594 C 175.558594 221.480469 175.300781 221.480469 175.046875 221.429688 C 174.21875 221.261719 173.378906 221.195312 172.535156 221.226562 C 171.691406 221.257812 170.863281 221.390625 170.050781 221.621094 C 169.238281 221.851562 168.460938 222.171875 167.726562 222.589844 C 166.992188 223.003906 166.3125 223.5 165.695312 224.078125 C 165.308594 224.472656 164.839844 224.675781 164.289062 224.6875 Z M 164.289062 224.6875 " fill-opacity="1" fill-rule="nonzero"/><path fill="#3c3c3b" d="M 170.683594 162.269531 C 170.441406 162.269531 170.203125 162.226562 169.972656 162.140625 C 169.742188 162.054688 169.535156 161.929688 169.347656 161.769531 C 169.164062 161.609375 169.011719 161.421875 168.894531 161.207031 C 168.777344 160.988281 168.699219 160.761719 168.667969 160.515625 C 168.566406 159.871094 168.367188 159.253906 168.074219 158.667969 C 167.777344 158.082031 167.402344 157.554688 166.941406 157.085938 C 166.484375 156.621094 165.964844 156.234375 165.382812 155.929688 C 164.804688 155.621094 164.191406 155.414062 163.542969 155.300781 C 163.289062 155.238281 163.054688 155.132812 162.839844 154.980469 C 162.628906 154.832031 162.449219 154.644531 162.304688 154.425781 C 162.164062 154.207031 162.066406 153.964844 162.015625 153.710938 C 161.96875 153.453125 161.964844 153.195312 162.015625 152.9375 C 162.066406 152.679688 162.160156 152.441406 162.300781 152.21875 C 162.441406 152 162.621094 151.8125 162.832031 151.660156 C 163.046875 151.507812 163.28125 151.402344 163.535156 151.339844 C 163.789062 151.277344 164.046875 151.265625 164.304688 151.300781 C 165.371094 151.496094 166.378906 151.84375 167.332031 152.351562 C 168.285156 152.859375 169.136719 153.503906 169.890625 154.277344 C 170.644531 155.050781 171.261719 155.921875 171.742188 156.890625 C 172.222656 157.859375 172.542969 158.878906 172.703125 159.945312 C 172.742188 160.214844 172.730469 160.476562 172.667969 160.738281 C 172.601562 161 172.488281 161.238281 172.328125 161.457031 C 172.167969 161.671875 171.96875 161.851562 171.738281 161.988281 C 171.507812 162.125 171.257812 162.210938 170.988281 162.25 Z M 170.683594 162.269531 " fill-opacity="1" fill-rule="nonzero"/><path fill="#3c3c3b" d="M 206.347656 256.027344 C 204.355469 256.015625 202.402344 255.71875 200.496094 255.132812 C 198.589844 254.542969 196.808594 253.695312 195.152344 252.582031 C 193.6875 251.613281 192.363281 250.476562 191.175781 249.179688 C 189.992188 247.878906 188.984375 246.457031 188.15625 244.910156 C 187.324219 243.359375 186.695312 241.734375 186.269531 240.027344 C 185.839844 238.324219 185.628906 236.59375 185.632812 234.835938 L 185.632812 135.820312 C 185.632812 134.085938 185.84375 132.378906 186.265625 130.699219 C 186.683594 129.015625 187.304688 127.410156 188.121094 125.878906 C 188.9375 124.351562 189.929688 122.945312 191.09375 121.660156 C 192.257812 120.375 193.558594 119.25 195 118.285156 C 196.386719 117.328125 197.867188 116.558594 199.445312 115.96875 C 201.023438 115.382812 202.652344 115 204.324219 114.820312 C 206 114.636719 207.667969 114.664062 209.335938 114.898438 C 211.003906 115.136719 212.617188 115.570312 214.175781 116.210938 C 216.300781 117.09375 218.308594 118.195312 220.191406 119.523438 C 221.136719 120.15625 222.03125 120.855469 222.871094 121.625 C 223.710938 122.390625 224.488281 123.21875 225.203125 124.101562 C 225.917969 124.988281 226.5625 125.921875 227.140625 126.902344 C 227.714844 127.882812 228.214844 128.902344 228.636719 129.960938 C 229.058594 131.015625 229.398438 132.097656 229.660156 133.207031 C 229.917969 134.316406 230.09375 135.4375 230.183594 136.570312 C 230.277344 137.703125 230.28125 138.839844 230.203125 139.972656 C 230.125 141.109375 229.960938 142.230469 229.710938 143.34375 C 232.246094 143.078125 234.683594 143.449219 237.023438 144.464844 C 239.183594 145.566406 241.046875 147.039062 242.609375 148.886719 C 244.175781 150.738281 245.324219 152.816406 246.050781 155.128906 C 246.640625 156.617188 247.015625 158.160156 247.175781 159.753906 C 247.335938 161.34375 247.277344 162.929688 247 164.507812 C 246.71875 166.082031 246.230469 167.59375 245.53125 169.035156 C 244.835938 170.476562 243.953125 171.792969 242.886719 172.988281 C 245.273438 174.796875 247.28125 176.949219 248.917969 179.453125 C 250.550781 181.957031 251.714844 184.664062 252.410156 187.574219 C 253.53125 193.289062 251.988281 199.265625 247.839844 205.167969 C 250.105469 212.59375 248.523438 220.191406 243.117188 227.769531 C 238.625 234.09375 231.0625 235.160156 227.425781 235.386719 C 227.242188 237.175781 226.863281 238.925781 226.292969 240.628906 C 225.71875 242.335938 224.964844 243.957031 224.03125 245.496094 C 223.097656 247.035156 222.007812 248.449219 220.757812 249.746094 C 219.511719 251.039062 218.132812 252.183594 216.632812 253.171875 C 215.820312 253.671875 214.972656 254.109375 214.097656 254.484375 C 211.617188 255.511719 209.035156 256.027344 206.347656 256.027344 Z M 206.347656 118.742188 C 204.699219 118.75 203.089844 118.996094 201.515625 119.488281 C 199.941406 119.976562 198.476562 120.6875 197.113281 121.617188 C 195.949219 122.394531 194.894531 123.304688 193.949219 124.34375 C 193.007812 125.378906 192.203125 126.515625 191.539062 127.75 C 190.875 128.984375 190.371094 130.28125 190.027344 131.640625 C 189.679688 133 189.503906 134.382812 189.496094 135.785156 L 189.496094 234.796875 C 189.496094 236.222656 189.671875 237.625 190.019531 239.007812 C 190.371094 240.386719 190.882812 241.707031 191.5625 242.960938 C 192.242188 244.214844 193.0625 245.363281 194.027344 246.414062 C 194.992188 247.460938 196.074219 248.375 197.265625 249.152344 C 198.371094 249.902344 199.554688 250.507812 200.8125 250.957031 C 202.070312 251.410156 203.367188 251.699219 204.699219 251.828125 C 206.027344 251.953125 207.355469 251.914062 208.675781 251.707031 C 209.996094 251.496094 211.269531 251.128906 212.5 250.601562 C 213.160156 250.304688 213.792969 249.960938 214.402344 249.574219 C 223.277344 244.03125 223.449219 233.292969 223.449219 233.195312 C 223.445312 232.601562 223.660156 232.101562 224.09375 231.691406 C 224.535156 231.296875 225.046875 231.121094 225.636719 231.160156 C 225.636719 231.160156 235.15625 231.828125 239.746094 225.449219 C 244.335938 219.070312 246.050781 212.269531 243.972656 206.0625 C 243.769531 205.660156 243.683594 205.234375 243.710938 204.785156 C 243.742188 204.332031 243.886719 203.921875 244.144531 203.550781 C 247.953125 198.351562 249.515625 193.25 248.582031 188.316406 C 246.984375 180.035156 238.832031 174.988281 238.757812 174.988281 C 238.472656 174.816406 238.242188 174.585938 238.070312 174.300781 C 237.898438 174.011719 237.804688 173.703125 237.785156 173.371094 C 237.75 172.671875 238.003906 172.097656 238.546875 171.65625 C 239.074219 171.210938 239.566406 170.726562 240.019531 170.203125 C 240.472656 169.679688 240.882812 169.125 241.246094 168.539062 C 241.613281 167.953125 241.933594 167.34375 242.203125 166.707031 C 242.476562 166.070312 242.695312 165.417969 242.867188 164.746094 C 243.035156 164.078125 243.152344 163.398438 243.214844 162.707031 C 243.28125 162.019531 243.289062 161.332031 243.246094 160.640625 C 243.203125 159.949219 243.109375 159.269531 242.957031 158.59375 C 242.808594 157.917969 242.609375 157.257812 242.355469 156.613281 C 237.671875 144.523438 228.625 147.53125 227.617188 147.914062 C 227.242188 148.054688 226.855469 148.082031 226.460938 147.996094 C 226.066406 147.910156 225.730469 147.722656 225.445312 147.4375 C 225.144531 147.160156 224.953125 146.824219 224.871094 146.425781 C 224.785156 146.023438 224.824219 145.640625 224.988281 145.265625 C 225.199219 144.714844 230.132812 131.402344 217.886719 122.890625 C 216.25 121.730469 214.503906 120.765625 212.652344 120 C 210.65625 119.171875 208.582031 118.753906 206.425781 118.742188 Z M 206.347656 118.742188 " fill-opacity="1" fill-rule="nonzero"/><path fill="#3c3c3b" d="M 210.785156 155.167969 C 210.347656 155.167969 209.910156 155.167969 209.492188 155.167969 C 208.445312 155.125 207.417969 154.964844 206.40625 154.679688 C 205.398438 154.394531 204.441406 153.992188 203.527344 153.476562 C 202.613281 152.960938 201.777344 152.347656 201.011719 151.632812 C 200.246094 150.917969 199.574219 150.121094 199 149.246094 C 198.878906 149.019531 198.800781 148.78125 198.769531 148.527344 C 198.738281 148.273438 198.753906 148.019531 198.820312 147.773438 C 198.882812 147.527344 198.988281 147.296875 199.136719 147.089844 C 199.289062 146.882812 199.46875 146.707031 199.683594 146.570312 C 199.898438 146.429688 200.132812 146.335938 200.382812 146.285156 C 200.632812 146.230469 200.886719 146.226562 201.136719 146.269531 C 201.390625 146.3125 201.625 146.402344 201.84375 146.535156 C 202.0625 146.667969 202.25 146.832031 202.40625 147.035156 C 202.820312 147.648438 203.296875 148.207031 203.847656 148.703125 C 204.394531 149.199219 204.992188 149.625 205.640625 149.976562 C 206.292969 150.328125 206.972656 150.597656 207.691406 150.78125 C 208.40625 150.96875 209.132812 151.0625 209.871094 151.074219 C 211.320312 151.105469 212.753906 150.992188 214.175781 150.726562 C 215.601562 150.457031 216.980469 150.046875 218.320312 149.496094 C 219.65625 148.941406 220.921875 148.253906 222.117188 147.4375 C 223.3125 146.617188 224.410156 145.683594 225.410156 144.636719 C 225.585938 144.425781 225.796875 144.257812 226.042969 144.132812 C 226.285156 144.007812 226.546875 143.9375 226.820312 143.917969 C 227.09375 143.898438 227.359375 143.929688 227.621094 144.019531 C 227.882812 144.105469 228.113281 144.242188 228.320312 144.425781 C 228.527344 144.609375 228.6875 144.824219 228.804688 145.070312 C 228.925781 145.320312 228.992188 145.582031 229.003906 145.855469 C 229.015625 146.128906 228.976562 146.394531 228.878906 146.652344 C 228.785156 146.910156 228.644531 147.140625 228.457031 147.339844 C 227.316406 148.542969 226.066406 149.625 224.710938 150.582031 C 223.355469 151.539062 221.921875 152.351562 220.402344 153.023438 C 218.886719 153.695312 217.320312 154.210938 215.699219 154.570312 C 214.082031 154.933594 212.445312 155.132812 210.785156 155.167969 Z M 210.785156 155.167969 " fill-opacity="1" fill-rule="nonzero"/><path fill="#3c3c3b" d="M 225.695312 235.273438 L 225.503906 235.273438 C 224.875 235.273438 209.910156 233.671875 204.558594 212.574219 C 204.492188 212.3125 204.476562 212.046875 204.515625 211.78125 C 204.554688 211.511719 204.644531 211.261719 204.78125 211.027344 C 204.921875 210.796875 205.097656 210.597656 205.316406 210.4375 C 205.53125 210.273438 205.773438 210.160156 206.035156 210.09375 C 206.296875 210.027344 206.5625 210.011719 206.832031 210.050781 C 207.097656 210.089844 207.347656 210.175781 207.582031 210.316406 C 207.816406 210.453125 208.011719 210.632812 208.175781 210.847656 C 208.335938 211.066406 208.453125 211.304688 208.519531 211.566406 C 213.128906 229.75 225.371094 231.179688 225.902344 231.234375 C 226.15625 231.269531 226.394531 231.347656 226.617188 231.472656 C 226.84375 231.59375 227.035156 231.753906 227.199219 231.949219 C 227.363281 232.144531 227.488281 232.363281 227.566406 232.605469 C 227.648438 232.847656 227.683594 233.097656 227.671875 233.351562 C 227.660156 233.605469 227.601562 233.851562 227.5 234.082031 C 227.394531 234.316406 227.253906 234.523438 227.070312 234.703125 C 226.890625 234.882812 226.683594 235.023438 226.449219 235.125 C 226.214844 235.226562 225.96875 235.28125 225.714844 235.292969 Z M 225.695312 235.273438 " fill-opacity="1" fill-rule="nonzero"/><path fill="#3c3c3b" d="M 246.886719 212.824219 L 246.714844 212.824219 C 246.445312 212.804688 246.1875 212.734375 245.945312 212.613281 C 245.699219 212.488281 245.488281 212.328125 245.3125 212.121094 C 245.132812 211.917969 245 211.683594 244.914062 211.425781 C 244.828125 211.167969 244.792969 210.90625 244.8125 210.632812 C 244.804688 209.722656 244.683594 208.824219 244.449219 207.945312 C 244.214844 207.0625 243.871094 206.226562 243.425781 205.429688 C 242.976562 204.636719 242.4375 203.910156 241.804688 203.253906 C 241.171875 202.597656 240.464844 202.027344 239.691406 201.550781 C 239.464844 201.402344 239.277344 201.214844 239.128906 200.992188 C 238.976562 200.765625 238.875 200.523438 238.824219 200.257812 C 238.773438 199.992188 238.773438 199.726562 238.828125 199.464844 C 238.882812 199.199219 238.984375 198.957031 239.136719 198.734375 C 239.289062 198.507812 239.480469 198.324219 239.707031 198.175781 C 239.929688 198.027344 240.175781 197.925781 240.441406 197.875 C 240.707031 197.824219 240.972656 197.824219 241.238281 197.875 C 241.503906 197.929688 241.75 198.03125 241.976562 198.179688 C 243.050781 198.859375 244.023438 199.664062 244.890625 200.59375 C 245.761719 201.519531 246.5 202.542969 247.105469 203.664062 C 247.710938 204.78125 248.164062 205.960938 248.464844 207.195312 C 248.765625 208.429688 248.90625 209.683594 248.886719 210.957031 C 248.863281 211.207031 248.796875 211.445312 248.683594 211.671875 C 248.574219 211.898438 248.425781 212.097656 248.242188 212.269531 C 248.058594 212.441406 247.847656 212.578125 247.617188 212.671875 C 247.382812 212.765625 247.140625 212.816406 246.886719 212.824219 Z M 246.886719 212.824219 " fill-opacity="1" fill-rule="nonzero"/><path fill="#3c3c3b" d="M 187.652344 209.757812 C 187.378906 209.757812 187.121094 209.707031 186.871094 209.601562 C 186.621094 209.5 186.402344 209.351562 186.210938 209.160156 C 186.019531 208.96875 185.871094 208.75 185.769531 208.5 C 185.664062 208.25 185.613281 207.992188 185.613281 207.71875 C 185.613281 204.234375 187.515625 197.039062 194.734375 194.828125 C 194.96875 194.804688 195.199219 194.820312 195.425781 194.875 C 195.65625 194.929688 195.867188 195.023438 196.0625 195.152344 C 196.257812 195.28125 196.429688 195.441406 196.570312 195.625 C 196.710938 195.8125 196.816406 196.019531 196.890625 196.242188 C 196.960938 196.46875 196.988281 196.695312 196.980469 196.933594 C 196.972656 197.167969 196.925781 197.394531 196.835938 197.609375 C 196.75 197.828125 196.628906 198.027344 196.472656 198.203125 C 196.320312 198.378906 196.140625 198.523438 195.933594 198.636719 C 189.839844 200.542969 189.6875 207.378906 189.6875 207.664062 C 189.699219 207.9375 189.652344 208.207031 189.554688 208.464844 C 189.457031 208.722656 189.308594 208.949219 189.117188 209.148438 C 188.925781 209.34375 188.703125 209.496094 188.445312 209.601562 C 188.191406 209.707031 187.925781 209.761719 187.652344 209.757812 Z M 187.652344 209.757812 " fill-opacity="1" fill-rule="nonzero"/><path fill="#3c3c3b" d="M 239.804688 175.253906 C 239.277344 175.253906 238.820312 175.078125 238.433594 174.722656 C 233.320312 170.679688 227.609375 167.851562 221.296875 166.230469 C 221.035156 166.164062 220.792969 166.046875 220.578125 165.886719 C 220.359375 165.722656 220.183594 165.527344 220.042969 165.292969 C 219.90625 165.058594 219.816406 164.808594 219.777344 164.542969 C 219.738281 164.273438 219.753906 164.007812 219.820312 163.746094 C 219.886719 163.480469 220 163.242188 220.164062 163.027344 C 220.328125 162.808594 220.523438 162.632812 220.757812 162.492188 C 220.988281 162.355469 221.242188 162.265625 221.507812 162.226562 C 221.777344 162.1875 222.042969 162.203125 222.304688 162.269531 C 229.300781 164.054688 235.597656 167.226562 241.195312 171.789062 C 241.390625 171.972656 241.546875 172.1875 241.660156 172.433594 C 241.773438 172.675781 241.835938 172.933594 241.84375 173.203125 C 241.855469 173.472656 241.816406 173.734375 241.722656 173.988281 C 241.628906 174.242188 241.492188 174.464844 241.308594 174.664062 C 240.894531 175.082031 240.390625 175.277344 239.804688 175.253906 Z M 239.804688 175.253906 " fill-opacity="1" fill-rule="nonzero"/><path fill="#3c3c3b" d="M 218.878906 176.855469 C 218.398438 176.851562 217.972656 176.699219 217.601562 176.398438 C 217.394531 176.226562 217.226562 176.023438 217.097656 175.789062 C 216.96875 175.550781 216.890625 175.300781 216.859375 175.03125 C 216.832031 174.765625 216.855469 174.503906 216.929688 174.242188 C 217.007812 173.984375 217.128906 173.75 217.296875 173.542969 C 218.335938 172.304688 219.519531 171.226562 220.847656 170.304688 C 222.175781 169.386719 223.601562 168.660156 225.128906 168.125 C 226.652344 167.589844 228.21875 167.269531 229.832031 167.15625 C 231.441406 167.042969 233.042969 167.148438 234.625 167.46875 C 234.886719 167.527344 235.132812 167.632812 235.351562 167.785156 C 235.574219 167.941406 235.757812 168.132812 235.902344 168.359375 C 236.050781 168.585938 236.144531 168.835938 236.191406 169.101562 C 236.238281 169.367188 236.234375 169.632812 236.175781 169.894531 C 236.117188 170.160156 236.011719 170.402344 235.859375 170.625 C 235.703125 170.84375 235.511719 171.027344 235.285156 171.175781 C 235.054688 171.320312 234.808594 171.414062 234.542969 171.464844 C 234.277344 171.511719 234.011719 171.503906 233.75 171.445312 C 232.542969 171.21875 231.328125 171.148438 230.105469 171.242188 C 228.882812 171.335938 227.691406 171.585938 226.535156 171.996094 C 225.378906 172.402344 224.292969 172.953125 223.28125 173.648438 C 222.269531 174.34375 221.367188 175.160156 220.574219 176.09375 C 220.136719 176.632812 219.570312 176.886719 218.878906 176.855469 Z M 218.878906 176.855469 " fill-opacity="1" fill-rule="nonzero"/><path fill="#3c3c3b" d="M 210.917969 224.6875 C 210.367188 224.6875 209.890625 224.496094 209.492188 224.113281 C 208.871094 223.539062 208.195312 223.046875 207.457031 222.628906 C 206.722656 222.214844 205.949219 221.894531 205.136719 221.664062 C 204.324219 221.433594 203.492188 221.304688 202.648438 221.269531 C 201.804688 221.238281 200.96875 221.300781 200.140625 221.46875 C 199.878906 221.535156 199.609375 221.546875 199.34375 221.507812 C 199.074219 221.464844 198.820312 221.375 198.589844 221.234375 C 198.355469 221.09375 198.160156 220.917969 197.996094 220.699219 C 197.835938 220.480469 197.722656 220.238281 197.65625 219.972656 C 197.589844 219.710938 197.578125 219.441406 197.617188 219.175781 C 197.65625 218.90625 197.75 218.652344 197.886719 218.421875 C 198.027344 218.1875 198.207031 217.992188 198.425781 217.828125 C 198.644531 217.667969 198.886719 217.554688 199.152344 217.488281 C 200.324219 217.25 201.507812 217.152344 202.703125 217.203125 C 203.894531 217.25 205.066406 217.4375 206.21875 217.769531 C 207.367188 218.101562 208.457031 218.566406 209.496094 219.164062 C 210.53125 219.757812 211.484375 220.46875 212.347656 221.296875 C 212.535156 221.488281 212.683594 221.707031 212.785156 221.957031 C 212.890625 222.207031 212.941406 222.464844 212.941406 222.734375 C 212.941406 223.003906 212.890625 223.261719 212.785156 223.511719 C 212.683594 223.761719 212.535156 223.980469 212.347656 224.171875 C 211.9375 224.53125 211.460938 224.703125 210.917969 224.6875 Z M 210.917969 224.6875 " fill-opacity="1" fill-rule="nonzero"/><path fill="#3c3c3b" d="M 204.5 162.269531 L 204.160156 162.269531 C 203.890625 162.230469 203.640625 162.144531 203.410156 162.007812 C 203.175781 161.871094 202.976562 161.691406 202.816406 161.476562 C 202.652344 161.261719 202.539062 161.019531 202.46875 160.757812 C 202.402344 160.496094 202.386719 160.234375 202.425781 159.964844 C 202.589844 158.894531 202.914062 157.878906 203.394531 156.910156 C 203.875 155.941406 204.496094 155.070312 205.25 154.292969 C 206.003906 153.519531 206.859375 152.878906 207.8125 152.371094 C 208.769531 151.863281 209.777344 151.511719 210.84375 151.320312 C 211.113281 151.257812 211.386719 151.246094 211.660156 151.292969 C 211.933594 151.339844 212.1875 151.441406 212.421875 151.59375 C 212.65625 151.742188 212.851562 151.933594 213.003906 152.164062 C 213.160156 152.394531 213.265625 152.648438 213.316406 152.921875 C 213.367188 153.195312 213.363281 153.46875 213.304688 153.738281 C 213.246094 154.011719 213.136719 154.261719 212.972656 154.488281 C 212.8125 154.714844 212.613281 154.898438 212.375 155.042969 C 212.136719 155.1875 211.878906 155.28125 211.605469 155.320312 C 210.957031 155.429688 210.34375 155.640625 209.761719 155.941406 C 209.175781 156.246094 208.65625 156.632812 208.195312 157.101562 C 207.734375 157.570312 207.355469 158.097656 207.058594 158.683594 C 206.765625 159.269531 206.566406 159.886719 206.464844 160.535156 C 206.425781 160.773438 206.351562 160.996094 206.238281 161.207031 C 206.125 161.417969 205.976562 161.601562 205.796875 161.757812 C 205.617188 161.917969 205.417969 162.039062 205.195312 162.128906 C 204.972656 162.214844 204.742188 162.261719 204.5 162.269531 Z M 204.5 162.269531 " fill-opacity="1" fill-rule="nonzero"/></svg>